<svg width="18" height="17" viewBox="0 0 18 17" fill="none" xmlns="http://www.w3.org/2000/svg">
<path fill-rule="evenodd" clip-rule="evenodd" d="M13.2117 0.41327L13.3176 0.417637L13.4214 0.424171L13.5252 0.432938L13.6289 0.444938L13.7305 0.459138L13.8321 0.475505L13.9326 0.495172L14.0331 0.517039L14.1314 0.541073L14.2297 0.567274L14.3269 0.596774L14.4219 0.627342L14.517 0.661209L14.6109 0.697243L14.7037 0.734411L14.7955 0.774812L14.8851 0.817412L14.9746 0.861113L15.062 0.908081L15.1494 0.956115L15.2346 1.00638L15.3187 1.05882L15.4006 1.11342L15.4825 1.17022L15.5623 1.22812L15.6409 1.28819L15.7174 1.35046L15.7928 1.41379L15.8659 1.47933L15.938 1.54596L16.009 1.6148L16.0778 1.68576L16.1445 1.75787L16.21 1.83107L16.2745 1.90644L16.3356 1.98397L16.3957 2.06154L16.4536 2.14127L16.5104 2.22318L16.565 2.30511L16.6174 2.38921L16.6677 2.47441L16.7157 2.56178L16.7627 2.64918L16.8064 2.73875L16.849 2.82832L16.8894 2.92006L16.9276 3.01293L16.9626 3.10686L16.9965 3.20186L17.027 3.298L17.0565 3.39413L17.0827 3.49244L17.1068 3.59074L17.1286 3.69121L17.1483 3.79171L17.1647 3.89331L17.1789 3.99488L17.1909 4.09865L17.1996 4.20242L17.2073 4.30729L17.2105 4.41212L17.2116 4.51809V12.7299L17.2105 12.8359L17.2073 12.9418L17.1996 13.0456L17.1909 13.1504L17.1789 13.2531L17.1647 13.3558L17.1483 13.4563L17.1286 13.5579L17.1068 13.6573L17.0827 13.7556L17.0565 13.8539L17.027 13.9511L16.9965 14.0472L16.9626 14.1412L16.9276 14.2351L16.8894 14.3279L16.849 14.4197L16.8064 14.5104L16.7627 14.5988L16.7157 14.6873L16.6677 14.7736L16.6174 14.8588L16.565 14.9429L16.5104 15.0259L16.4536 15.1068L16.3957 15.1865L16.3356 15.2651L16.2745 15.3416L16.21 15.417L16.1445 15.4901L16.0778 15.5622L16.009 15.6332L15.938 15.702L15.8659 15.7698L15.7928 15.8342L15.7174 15.8987L15.6409 15.9598L15.5623 16.0199L15.4825 16.0789L15.4006 16.1346L15.3187 16.1892L15.2346 16.2416L15.1494 16.2919L15.062 16.341L14.9746 16.3869L14.8851 16.4317L14.7955 16.4732L14.7037 16.5136L14.6109 16.5518L14.517 16.5868L14.4219 16.6207L14.3269 16.6513L14.2297 16.6808L14.1314 16.707L14.0331 16.731L13.9326 16.7528L13.8321 16.7725L13.7305 16.7889L13.6289 16.8031L13.5252 16.8151L13.4214 16.8249L13.3176 16.8315L13.2117 16.8348L13.1057 16.8369H4.89388L4.78792 16.8348L4.68197 16.8315L4.57821 16.8249L4.47444 16.8151L4.37067 16.8031L4.26909 16.7889L4.16751 16.7725L4.06702 16.7528L3.96652 16.731L3.86822 16.707L3.76991 16.6808L3.6727 16.6513L3.57767 16.6207L3.48264 16.5868L3.3887 16.5518L3.29586 16.5136L3.20411 16.4732L3.11454 16.4317L3.02497 16.3869L2.93758 16.341L2.85021 16.2919L2.76501 16.2416L2.6809 16.1892L2.59898 16.1346L2.51706 16.0789L2.43732 16.0199L2.35867 15.9598L2.28221 15.8987L2.20684 15.8342L2.13367 15.7698L2.06157 15.702L1.99057 15.6332L1.92176 15.5622L1.85513 15.4901L1.78959 15.417L1.72515 15.3416L1.66398 15.2651L1.60391 15.1865L1.54492 15.1068L1.48921 15.0259L1.43459 14.9429L1.38217 14.8588L1.33193 14.7736L1.28386 14.6873L1.23689 14.5988L1.19211 14.5104L1.1506 14.4197L1.11019 14.3279L1.07196 14.2351L1.037 14.1412L1.00314 14.0472L0.972559 13.9511L0.943067 13.8539L0.91685 13.7556L0.892824 13.6573L0.870974 13.5579L0.851315 13.4563L0.834932 13.3558L0.820731 13.2531L0.808714 13.1504L0.799981 13.0456L0.792331 12.9418L0.789056 12.8359L0.787964 12.7299V4.51809L0.789056 4.41212L0.792331 4.30729L0.799981 4.20242L0.808714 4.09865L0.820731 3.99488L0.834932 3.89331L0.851315 3.79171L0.870974 3.69121L0.892824 3.59074L0.91685 3.49244L0.943067 3.39413L0.972559 3.298L1.00314 3.20186L1.037 3.10686L1.07196 3.01293L1.11019 2.92006L1.1506 2.82832L1.19211 2.73875L1.23689 2.64918L1.28386 2.56178L1.33193 2.47441L1.38217 2.38921L1.43459 2.30511L1.48921 2.22318L1.54492 2.14127L1.60391 2.06154L1.66398 1.98397L1.72515 1.90644L1.78959 1.83107L1.85513 1.75787L1.92176 1.68576L1.99057 1.6148L2.06157 1.54596L2.13367 1.47933L2.20684 1.41379L2.28221 1.35046L2.35867 1.28819L2.43732 1.22812L2.51706 1.17022L2.59898 1.11342L2.6809 1.05882L2.76501 1.00638L2.85021 0.956115L2.93758 0.908081L3.02497 0.861113L3.11454 0.817412L3.20411 0.774812L3.29586 0.734411L3.3887 0.697243L3.48264 0.661209L3.57767 0.627342L3.6727 0.596774L3.76991 0.567274L3.86822 0.541073L3.96652 0.517039L4.06702 0.495172L4.16751 0.475505L4.26909 0.459138L4.37067 0.444938L4.47444 0.432938L4.57821 0.424171L4.68197 0.417637L4.78792 0.41327L4.89388 0.41217H13.1057L13.2117 0.41327ZM4.90589 2.30074L4.83599 2.30184L4.7781 2.30401L4.7213 2.30728L4.66559 2.31274L4.60989 2.31931L4.55418 2.32694L4.49956 2.33568L4.44604 2.34551L4.39252 2.35755L4.339 2.37065L4.28656 2.38485L4.23523 2.40015L4.1828 2.41651L4.13255 2.43508L4.08231 2.45365L4.03207 2.47441L3.98291 2.49625L3.93485 2.51812L3.88679 2.54215L3.83873 2.56725L3.79285 2.59348L3.74698 2.62078L3.7011 2.64918L3.65632 2.67869L3.61262 2.70925L3.56893 2.74092L3.52633 2.77369L3.48483 2.80645L3.44441 2.84142L3.40399 2.87746L3.36468 2.91352L3.32644 2.95066L3.28931 2.98889L3.25217 3.02819L3.21722 3.06863L3.18227 3.10903L3.1484 3.15053L3.11672 3.19313L3.08505 3.23683L3.05446 3.28053L3.02497 3.3253L2.99657 3.37117L2.96927 3.41707L2.94305 3.46404L2.91793 3.511L2.8939 3.55907L2.87205 3.60711L2.85021 3.65627L2.82945 3.70651L2.81088 3.75678L2.79232 3.80811L2.77593 3.85944L2.76064 3.91078L2.74644 3.96321L2.73333 4.01671L2.72131 4.07025L2.71149 4.12378L2.70165 4.17838L2.694 4.23409L2.68855 4.28979L2.68309 4.34552L2.67981 4.40229L2.67762 4.46019L2.67653 4.53009V12.7179L2.67762 12.7889L2.67981 12.8457L2.68309 12.9025L2.68855 12.9593L2.694 13.015L2.70165 13.0696L2.71149 13.1242L2.72131 13.1788L2.73333 13.2324L2.74644 13.2848L2.76064 13.3372L2.77593 13.3897L2.79232 13.441L2.81088 13.4913L2.82945 13.5415L2.85021 13.5918L2.87205 13.6409L2.8939 13.689L2.91793 13.737L2.94305 13.7851L2.96927 13.8321L2.99657 13.8779L3.02497 13.9227L3.05446 13.9675L3.08505 14.0112L3.11672 14.0549L3.1484 14.0975L3.18227 14.139L3.21722 14.1805L3.25217 14.2198L3.28931 14.2591L3.32644 14.2974L3.36468 14.3345L3.40399 14.3716L3.44441 14.4066L3.48483 14.4415L3.52633 14.4754L3.56893 14.5071L3.61262 14.5398L3.65632 14.5704L3.7011 14.5988L3.74589 14.6272L3.79285 14.6545L3.83873 14.6807L3.88679 14.7059L3.93485 14.7299L3.98291 14.7528L4.03207 14.7736L4.08231 14.7943L4.13255 14.814L4.1828 14.8315L4.23414 14.8479L4.28656 14.8632L4.339 14.8774L4.39252 14.8905L4.44604 14.9025L4.49956 14.9123L4.55418 14.9221L4.60989 14.9298L4.66559 14.9363L4.7213 14.9407L4.7781 14.944L4.83599 14.9462L4.90589 14.9473H13.0937L13.1636 14.9462L13.2215 14.944L13.2783 14.9407L13.334 14.9363L13.3897 14.9298L13.4454 14.9221L13.5 14.9123L13.5536 14.9025L13.6071 14.8905L13.6606 14.8774L13.713 14.8632L13.7655 14.8479L13.8168 14.8315L13.867 14.814L13.9173 14.7943L13.9675 14.7736L14.0167 14.7528L14.0647 14.7299L14.1128 14.7059L14.1609 14.6807L14.2067 14.6545L14.2537 14.6272L14.2985 14.5988L14.3433 14.5693L14.387 14.5398L14.4307 14.5071L14.4733 14.4754L14.5148 14.4415L14.5552 14.4077L14.5956 14.3716L14.6349 14.3345L14.6732 14.2974L14.7103 14.2591L14.7474 14.2198L14.7824 14.1805L14.8173 14.139L14.8512 14.0975L14.8829 14.0549L14.9145 14.0123L14.9451 13.9675L14.9746 13.9227L15.003 13.8779L15.0303 13.8321L15.0565 13.7851L15.0817 13.737L15.1057 13.689L15.1275 13.6409L15.1494 13.5918L15.1701 13.5415L15.1887 13.4913L15.2073 13.441L15.2237 13.3897L15.239 13.3372L15.2532 13.2848L15.2663 13.2324L15.2783 13.1788L15.2881 13.1242L15.2979 13.0696L15.3056 13.015L15.311 12.9593L15.3165 12.9025L15.3198 12.8457L15.322 12.7878L15.3231 12.7179V4.53009L15.322 4.46019L15.3198 4.40229L15.3165 4.34552L15.311 4.28979L15.3056 4.23409L15.2979 4.17838L15.2881 4.12378L15.2783 4.07025L15.2663 4.01671L15.2532 3.96321L15.239 3.91078L15.2237 3.85944L15.2073 3.80811L15.1887 3.75678L15.1701 3.70651L15.1494 3.65627L15.1275 3.60711L15.1057 3.55907L15.0817 3.511L15.0565 3.46404L15.0303 3.41707L15.003 3.37117L14.9746 3.3253L14.9451 3.28053L14.9145 3.23683L14.8829 3.19313L14.8512 3.15053L14.8173 3.10903L14.7824 3.06863L14.7474 3.02819L14.7103 2.98889L14.6732 2.95066L14.6349 2.91352L14.5956 2.87746L14.5552 2.84142L14.5148 2.80645L14.4733 2.77369L14.4307 2.74092L14.387 2.70925L14.3433 2.67869L14.2985 2.64918L14.2526 2.62078L14.2067 2.59348L14.1609 2.56725L14.1128 2.54215L14.0647 2.51812L14.0167 2.49625L13.9675 2.47441L13.9173 2.45365L13.867 2.43508L13.8168 2.41651L13.7644 2.40015L13.713 2.38485L13.6606 2.37065L13.6071 2.35755L13.5536 2.34551L13.5 2.33568L13.4454 2.32694L13.3897 2.31931L13.334 2.31274L13.2783 2.30728L13.2215 2.30401L13.1636 2.30184L13.0937 2.30074H4.90589Z" fill="#BABABA"/>
</svg>

