<?xml version="1.0" encoding="utf-8"?>
<!-- Generator: Adobe Illustrator 22.1.0, SVG Export Plug-In . SVG Version: 6.00 Build 0)  -->
<svg version="1.1" id="Слой_1" xmlns="http://www.w3.org/2000/svg" xmlns:xlink="http://www.w3.org/1999/xlink" x="0px" y="0px"
	 viewBox="0 0 32 32" style="enable-background:new 0 0 32 32;" xml:space="preserve">
<style type="text/css">
	.st0{fill:#666D89;}
</style>
<title>Ресурс 2</title>
<g id="Слой_2_1_">
	<g id="Слой_1-2">
		<path class="st0" d="M29.4,2.6C27.8,1,25.7,0,23.5,0c-1.7,0-3.4,0.7-4.7,1.9l-4.9,4.9l0,0l0,0l0,0L3.5,17.3
			c-0.5,0.5-0.8,1.1-1,1.7l-2.4,8.5c-0.1,0.3-0.1,0.7-0.2,1C0,30.4,1.5,32,3.5,32c0,0,0,0,0,0c0.4,0,0.8-0.1,1.2-0.2l8.5-2.2
			c0.6-0.2,1.2-0.5,1.7-1l15.3-15.4C32.9,10.4,32.6,5.7,29.4,2.6z M16,23.8c-0.1-0.9-0.3-1.8-0.7-2.6l9.4-9.5c0.6,1.7,0.2,3.7-1,5
			l0,0l0,0L16,24.5C16,24.3,16,24,16,23.8z M14.8,20.3c-0.4-0.6-0.8-1.2-1.3-1.7c-0.6-0.6-1.3-1.1-2-1.5L21,7.5
			c0.8,0.4,1.5,0.8,2.1,1.4c0.5,0.5,0.9,1.1,1.3,1.8L14.8,20.3z M10.5,16.6C9.6,16.2,8.6,16,7.6,16l7.7-7.8c1.2-1.1,3-1.5,4.6-1.1
			L10.5,16.6z M4.2,29.9C3.9,29.9,3.7,30,3.5,30C2.7,30,2,29.3,2,28.5c0-0.2,0.1-0.4,0.1-0.6l1-3.8c1.3,0,2.5,0.5,3.3,1.4
			c0.9,0.9,1.4,2.1,1.4,3.4L4.2,29.9z M8.9,28.6c0-1.4-0.6-2.8-1.7-3.8c-1-1-2.3-1.6-3.8-1.7l1-3.6c0.1-0.3,0.2-0.5,0.4-0.7
			c2-1.4,5.1-1,7.2,1.1s2.6,5.6,0.9,7.6c-0.1,0.1-0.2,0.1-0.4,0.2L8.9,28.6z M28.7,11.8L27,13.5c0-0.2,0-0.4,0-0.7
			c-0.2-2-1.1-3.9-2.5-5.3C22.9,5.9,20.8,5,18.5,5l1.7-1.7c0.9-0.8,2-1.3,3.3-1.3c1.7,0,3.4,0.8,4.5,2c1.1,1.1,1.9,2.6,2,4.2
			C30.1,9.5,29.6,10.8,28.7,11.8z"/>
	</g>
</g>
</svg>
