<?xml version="1.0" encoding="utf-8"?>
<!-- Generator: Adobe Illustrator 22.1.0, SVG Export Plug-In . SVG Version: 6.00 Build 0)  -->
<svg version="1.1" id="Слой_1" xmlns="http://www.w3.org/2000/svg" xmlns:xlink="http://www.w3.org/1999/xlink" x="0px" y="0px"
	 viewBox="0 0 32 31" style="enable-background:new 0 0 32 31;" xml:space="preserve">
<style type="text/css">
	.st0{fill:#666D89;}
</style>
<title>Ресурс 7</title>
<g id="Слой_2_1_">
	<g id="Слой_1-2">
		<path class="st0" d="M31.9,11.6c-0.3-0.8-1-1.4-1.9-1.5l-8.3-1.2l-3.6-7.5c-0.6-1.2-2-1.6-3.1-1c-0.4,0.2-0.8,0.6-1,1l-3.6,7.5
			L2,10c-0.9,0.1-1.6,0.7-1.9,1.5c-0.3,0.8-0.1,1.7,0.5,2.3l6.1,6.1l-1.4,8.5c-0.1,0.9,0.3,1.7,1,2.2C6.7,30.8,7.2,31,7.6,31
			c0.4,0,0.8-0.1,1.1-0.3l7.3-3.9l7.3,3.9c0.3,0.2,0.7,0.3,1.1,0.3c0.5,0,0.9-0.1,1.3-0.4c0.7-0.5,1.1-1.3,1-2.2l-1.4-8.5l6.1-6.1
			C31.9,13.2,32.2,12.4,31.9,11.6z M23.6,18.4c-0.5,0.5-0.7,1.2-0.6,1.9l1.4,8.5l-7.3-3.9c-0.7-0.4-1.5-0.4-2.2,0l-7.3,3.9L9,20.3
			c0.1-0.7-0.1-1.4-0.6-1.9l-6.1-6.1l8.4-1.3c0.8-0.1,1.4-0.6,1.7-1.3L16,2.2l3.6,7.5c0.3,0.7,1,1.1,1.7,1.2l8.3,1.2L23.6,18.4z"/>
	</g>
</g>
</svg>
