<svg xmlns="http://www.w3.org/2000/svg" viewBox="0 0 32 28"><defs><style>.cls-1{fill:#201600;fill-rule:evenodd;}</style></defs><title>Ресурс 6</title><g id="Слой_2" data-name="Слой 2"><g id="Слой_1-2" data-name="Слой 1"><path class="cls-1" d="M16,5C10,5,5,8.21,5,12a.5.5,0,0,0,1,0c0-3.2,4.67-6,10-6a.5.5,0,0,0,0-1Z"/><path class="cls-1" d="M16,0C7.16,0,0,5.37,0,12c0,4.13,2.78,7.77,7,9.93,0,0,0,0,0,.07,0,1.79-1.34,3.72-1.93,4.74h0a1,1,0,0,0-.07.35.91.91,0,0,0,.91.91c.09,0,.25,0,.25,0,3.13-.51,6.07-3.39,6.75-4.22A20.8,20.8,0,0,0,16,24c8.84,0,16-5.37,16-12S24.84,0,16,0Zm0,22a19.05,19.05,0,0,1-2.8-.21l-.29,0a2,2,0,0,0-1.54.73A13.4,13.4,0,0,1,8.28,25,7.8,7.8,0,0,0,9,22.11c0-.06,0-.13,0-.18a2,2,0,0,0-1.09-1.79C4.21,18.25,2,15.21,2,12,2,6.49,8.28,2,16,2S30,6.49,30,12,23.72,22,16,22Z"/></g></g></svg>