<?xml version="1.0" encoding="utf-8"?>
<!-- Generator: Adobe Illustrator 22.1.0, SVG Export Plug-In . SVG Version: 6.00 Build 0)  -->
<svg version="1.1" id="Слой_1" xmlns="http://www.w3.org/2000/svg" xmlns:xlink="http://www.w3.org/1999/xlink" x="0px" y="0px"
	 viewBox="0 0 32 28" style="enable-background:new 0 0 32 28;" xml:space="preserve">
<style type="text/css">
	.st0{fill:#666D89;}
</style>
<title>Ресурс 6</title>
<g id="Слой_2_1_">
	<g id="Слой_1-2">
		<path class="st0" d="M16,5C10,5,5,8.2,5,12c0,0.3,0.2,0.5,0.5,0.5S6,12.3,6,12c0-3.2,4.7-6,10-6c0.3,0,0.5-0.2,0.5-0.5
			S16.3,5,16,5z"/>
		<path class="st0" d="M16,0C7.2,0,0,5.4,0,12c0,4.1,2.8,7.8,7,9.9c0,0,0,0,0,0.1c0,1.8-1.3,3.7-1.9,4.7l0,0C5,26.9,5,27,5,27.1
			C5,27.6,5.4,28,5.9,28c0.1,0,0.3,0,0.3,0c3.1-0.5,6.1-3.4,6.8-4.2c1,0.2,2.1,0.2,3.1,0.2c8.8,0,16-5.4,16-12S24.8,0,16,0z M16,22
			c-0.9,0-1.9-0.1-2.8-0.2h-0.3c-0.6,0-1.2,0.3-1.5,0.7c-0.9,1-1.9,1.8-3.1,2.5c0.4-0.9,0.7-1.9,0.7-2.9C9,22,9,22,9,21.9
			c0-0.8-0.4-1.4-1.1-1.8C4.2,18.2,2,15.2,2,12C2,6.5,8.3,2,16,2s14,4.5,14,10S23.7,22,16,22z"/>
	</g>
</g>
</svg>
