<?xml version="1.0" encoding="utf-8"?>
<!-- Generator: Adobe Illustrator 22.1.0, SVG Export Plug-In . SVG Version: 6.00 Build 0)  -->
<svg version="1.1" id="Слой_1" xmlns="http://www.w3.org/2000/svg" xmlns:xlink="http://www.w3.org/1999/xlink" x="0px" y="0px"
	 viewBox="0 0 32 32" style="enable-background:new 0 0 32 32;" xml:space="preserve">
<style type="text/css">
	.st0{fill:#6E6E6E;}
</style>
<title>Ресурс 3</title>
<g id="Слой_1-2">
	<path class="st0" d="M16,0C9.9,0,5,4.9,5,11c0,4,3.7,8.3,5,12c2,5.6,1.8,9,6,9s4-3.3,6-8.9c1.3-3.8,5-8.1,5-12.1
		C27,4.9,22.1,0,16,0z M18.6,27.2l-5,0.6c-0.2-0.5-0.4-1.1-0.6-1.9l0,0l6.2-0.8c-0.1,0.3-0.2,0.6-0.3,0.9
		C18.8,26.4,18.7,26.8,18.6,27.2z M12.7,24.9c-0.2-0.6-0.4-1.2-0.6-1.9h7.8c-0.1,0.4-0.3,0.7-0.4,1.1L12.7,24.9z M16,30
		c-0.9,0.2-1.8-0.4-2-1.3l4.2-0.5C17.6,29.9,17.2,30,16,30z M20.7,21h-9.3c-0.5-1.1-1.1-2.2-1.7-3.2C8.4,15.4,7,13,7,11c0-5,4-9,9-9
		s9,4,9,9c0,2-1.4,4.4-2.7,6.8C21.8,18.8,21.2,19.9,20.7,21z"/>
	<path class="st0" d="M16,5c-3.3,0-6,2.7-6,6c0,0.3,0.2,0.5,0.5,0.5S11,11.3,11,11c0-2.8,2.2-5,5-5c0.3,0,0.5-0.2,0.5-0.5
		S16.3,5,16,5z"/>
</g>
</svg>
