<svg xmlns="http://www.w3.org/2000/svg" viewBox="0 0 32 27.97"><defs><style>.cls-1{fill:#201600;fill-rule:evenodd;}</style></defs><title>Ресурс 4</title><g id="Слой_2" data-name="Слой 2"><g id="Слой_1-2" data-name="Слой 1"><path class="cls-1" d="M29.19,2.76A9.63,9.63,0,0,0,16,2.47a9.63,9.63,0,0,0-13.19.29,9.39,9.39,0,0,0,0,13.4l11,10.93a3,3,0,0,0,4.28,0L29.19,16.16A9.4,9.4,0,0,0,29.19,2.76Zm-1.43,12-11,10.93a1,1,0,0,1-1.42,0L4.23,14.75a7.43,7.43,0,0,1,0-10.58A7.6,7.6,0,0,1,14.64,4L16,5.17,17.35,4a7.6,7.6,0,0,1,10.41.22A7.43,7.43,0,0,1,27.76,14.75Z"/><path class="cls-1" d="M9.25,5h0A4.26,4.26,0,0,0,5,9.24H5a.5.5,0,0,0,1,0H6A3.25,3.25,0,0,1,9.25,6h0a.5.5,0,0,0,.5-.5A.5.5,0,0,0,9.25,5Z"/></g></g></svg>