<?xml version="1.0" encoding="utf-8"?>
<!-- Generator: Adobe Illustrator 22.1.0, SVG Export Plug-In . SVG Version: 6.00 Build 0)  -->
<svg version="1.1" id="Слой_1" xmlns="http://www.w3.org/2000/svg" xmlns:xlink="http://www.w3.org/1999/xlink" x="0px" y="0px"
	 viewBox="0 0 32 28" style="enable-background:new 0 0 32 28;" xml:space="preserve">
<style type="text/css">
	.st0{fill:#666D89;}
</style>
<title>Ресурс 4</title>
<g id="Слой_2_1_">
	<g id="Слой_1-2">
		<path class="st0" d="M29.2,2.8C25.6-0.8,19.8-0.9,16,2.5C12.2-0.9,6.4-0.8,2.8,2.8C-0.9,6.4-0.9,12.3,2.7,16c0,0,0.1,0.1,0.1,0.1
			l11,10.9c1.2,1.2,3.1,1.2,4.2,0c0,0,0,0,0,0l11.1-10.9c3.7-3.6,3.7-9.6,0.1-13.3C29.3,2.8,29.2,2.8,29.2,2.8z M27.8,14.8l-11,10.9
			c-0.4,0.4-1,0.4-1.4,0c0,0,0,0,0,0L4.2,14.7c-2.9-2.9-3-7.6-0.1-10.5c0,0,0,0,0.1-0.1C7.1,1.4,11.7,1.3,14.6,4L16,5.2L17.4,4
			c3-2.7,7.5-2.6,10.4,0.2C30.7,7.1,30.7,11.8,27.8,14.8C27.8,14.7,27.8,14.7,27.8,14.8L27.8,14.8z"/>
		<path class="st0" d="M9.3,5L9.3,5C6.9,5,5,6.9,5,9.2l0,0c0,0.3,0.2,0.5,0.5,0.5S6,9.5,6,9.2l0,0C6,7.4,7.5,6,9.3,6l0,0
			c0.3,0,0.5-0.2,0.5-0.5S9.5,5,9.3,5z"/>
	</g>
</g>
</svg>
