<svg xmlns="http://www.w3.org/2000/svg" viewBox="0 0 32 32"><defs><style>.cls-1{fill:#201600;}</style></defs><title>Ресурс 2</title><g id="Слой_2" data-name="Слой 2"><g id="Слой_1-2" data-name="Слой 1"><path class="cls-1" d="M29.4,2.58A8.56,8.56,0,0,0,23.45,0a6.54,6.54,0,0,0-4.67,1.88l-4.87,4.9,0,0,0,0h0L3.52,17.26a4.06,4.06,0,0,0-1,1.7L.16,27.47a5.84,5.84,0,0,0-.16,1A3.5,3.5,0,0,0,3.5,32a6.44,6.44,0,0,0,1.16-.19l8.48-2.23a4,4,0,0,0,1.7-1L30.11,13.19C32.88,10.41,32.57,5.75,29.4,2.58ZM16,23.8a8.09,8.09,0,0,0-.71-2.63l9.45-9.46a4.88,4.88,0,0,1-1,5s0,0,0,0h0L16,24.54A4.57,4.57,0,0,0,16,23.8Zm-1.22-3.54a8.44,8.44,0,0,0-1.32-1.73,8.89,8.89,0,0,0-2-1.49L21,7.5a7.22,7.22,0,0,1,2.1,1.44,6.93,6.93,0,0,1,1.28,1.77Zm-4.3-3.7A8.23,8.23,0,0,0,7.62,16l7.7-7.76a4.8,4.8,0,0,1,4.59-1.06ZM4.17,29.87a4.87,4.87,0,0,1-.68.13A1.51,1.51,0,0,1,2,28.5a4.84,4.84,0,0,1,.1-.56l1-3.82a4.56,4.56,0,0,1,3.34,1.39,4.54,4.54,0,0,1,1.4,3.39Zm4.7-1.23A5.58,5.58,0,0,0,7.2,24.8a5.68,5.68,0,0,0-3.76-1.7l1-3.61a2,2,0,0,1,.39-.68c2-1.44,5.09-1,7.24,1.13s2.61,5.59.87,7.57a2.32,2.32,0,0,1-.36.16ZM28.69,11.77,27,13.47a5,5,0,0,0,0-.67,8.53,8.53,0,0,0-2.54-5.27A8.51,8.51,0,0,0,18.54,5L20.2,3.29A4.54,4.54,0,0,1,23.45,2,6.53,6.53,0,0,1,28,4a6.55,6.55,0,0,1,2,4.16A4.59,4.59,0,0,1,28.69,11.77Z"/></g></g></svg>