<svg xmlns="http://www.w3.org/2000/svg" viewBox="0 0 22 32"><defs><style>.cls-1{fill:#201600;}</style></defs><title>Ресурс 5</title><g id="Слой_2" data-name="Слой 2"><g id="Слой_1-2" data-name="Слой 1"><path class="cls-1" d="M19,0H3A3,3,0,0,0,0,3V29a3,3,0,0,0,3,3H19a3,3,0,0,0,3-3V3A3,3,0,0,0,19,0Zm1,29a1,1,0,0,1-1,1H3a1,1,0,0,1-1-1V27H20Zm0-3H2V6H20ZM20,5H2V3A1,1,0,0,1,3,2H19a1,1,0,0,1,1,1Z"/><path class="cls-1" d="M13,3.5a.5.5,0,0,1-.5.5h-3A.5.5,0,0,1,9,3.5H9A.5.5,0,0,1,9.5,3h3a.5.5,0,0,1,.5.5Z"/><path class="cls-1" d="M12,28.5a.5.5,0,0,1-.5.5h-1a.5.5,0,0,1-.5-.5h0a.5.5,0,0,1,.5-.5h1a.5.5,0,0,1,.5.5Z"/></g></g></svg>