<?xml version="1.0" encoding="utf-8"?>
<!-- Generator: Adobe Illustrator 22.1.0, SVG Export Plug-In . SVG Version: 6.00 Build 0)  -->
<svg version="1.1" id="Слой_1" xmlns="http://www.w3.org/2000/svg" xmlns:xlink="http://www.w3.org/1999/xlink" x="0px" y="0px"
	 viewBox="0 0 22 32" style="enable-background:new 0 0 22 32;" xml:space="preserve">
<style type="text/css">
	.st0{fill:#666D89;}
</style>
<title>Ресурс 5</title>
<g id="Слой_2_1_">
	<g id="Слой_1-2">
		<path class="st0" d="M19,0H3C1.3,0,0,1.3,0,3v26c0,1.7,1.3,3,3,3l0,0h16c1.7,0,3-1.3,3-3l0,0V3C22,1.3,20.7,0,19,0z M20,29
			c0,0.6-0.4,1-1,1H3c-0.6,0-1-0.4-1-1v-2h18V29z M20,26H2V6h18V26z M20,5H2V3c0-0.6,0.4-1,1-1h16c0.6,0,1,0.4,1,1V5z"/>
		<path class="st0" d="M13,3.5C13,3.8,12.8,4,12.5,4h-3C9.2,4,9,3.8,9,3.5l0,0C9,3.2,9.2,3,9.5,3h3C12.8,3,13,3.2,13,3.5z"/>
		<path class="st0" d="M12,28.5c0,0.3-0.2,0.5-0.5,0.5h-1c-0.3,0-0.5-0.2-0.5-0.5l0,0c0-0.3,0.2-0.5,0.5-0.5h1
			C11.8,28,12,28.2,12,28.5z"/>
	</g>
</g>
</svg>
